<svg viewBox="0 0 42 42" xmlns="http://www.w3.org/2000/svg" xmlns:xlink="http://www.w3.org/1999/xlink"><defs><path d="M35.824 1.158C30.474-1.734 23.476.988 21 7.226 18.524.987 11.526-1.737 6.176 1.159.477 4.25-2.248 12.138 2.253 21.443 5.449 28.067 11.115 33.056 21 42.001c9.885-8.945 15.551-13.939 18.747-20.559 4.501-9.304 1.776-17.194-3.923-20.284z" id="a"/></defs><g fill-rule="nonzero" fill="none"><use fill="#F93F23" fill-rule="evenodd" xlink:href="#a"/><path stroke="#F93F23" d="M21 41.326c-9.733-8.81-12.078-11.075-14.871-14.659-1.41-1.807-2.525-3.575-3.426-5.441C-1.398 12.746.472 4.82 6.414 1.599c5.13-2.777 11.775-.1 14.121 5.811L21 8.581l.465-1.17c2.345-5.91 8.99-8.587 14.121-5.813 5.942 3.222 7.812 11.148 3.71 19.626-.898 1.861-2.01 3.624-3.413 5.427-2.796 3.59-5.164 5.878-14.883 14.675z"/></g></svg>